<svg xmlns="http://www.w3.org/2000/svg" xmlns:xlink="http://www.w3.org/1999/xlink" width="500" zoomAndPan="magnify" viewBox="0 0 375 374.999991" height="500" preserveAspectRatio="xMidYMid meet" version="1.0"><defs><clipPath id="24bdbe185c"><path d="M 187.5 0 C 83.945312 0 0 83.945312 0 187.5 C 0 291.054688 83.945312 375 187.5 375 C 291.054688 375 375 291.054688 375 187.5 C 375 83.945312 291.054688 0 187.5 0 Z M 187.5 0 " clip-rule="nonzero"/></clipPath></defs><g clip-path="url(#24bdbe185c)"><rect x="-37.5" width="450" fill="#c3e6ff" y="-37.499999" height="449.999989" fill-opacity="1"/></g><path fill="#ffea72" d="M 256.679688 185.066406 C 256.679688 224.226562 229.535156 255.355469 190.371094 255.355469 C 151.210938 255.355469 118.316406 226.660156 118.316406 187.496094 C 118.316406 148.335938 148.027344 119.640625 187.191406 119.640625 C 229.484375 119.640625 256.679688 145.90625 256.679688 185.066406 Z M 193.355469 45.707031 C 191.210938 42.390625 182.261719 42.058594 179.828125 45.816406 C 177.328125 49.683594 179.585938 102.957031 186.59375 102.953125 C 194.257812 102.953125 195.203125 48.566406 193.355469 45.707031 Z M 121.675781 61.773438 C 118.160156 59.972656 110.242188 64.164062 110.015625 68.632812 C 109.78125 73.234375 138.375 118.238281 144.445312 114.734375 C 151.078125 110.902344 124.703125 63.324219 121.675781 61.773438 Z M 67.632812 111.527344 C 63.6875 111.726562 58.925781 119.316406 60.964844 123.296875 C 63.0625 127.398438 110.324219 152.078125 113.828125 146.007812 C 117.660156 139.371094 71.03125 111.359375 67.632812 111.527344 Z M 45.707031 181.640625 C 42.390625 183.785156 42.058594 192.734375 45.816406 195.167969 C 49.683594 197.667969 102.957031 195.410156 102.953125 188.402344 C 102.953125 180.738281 48.566406 179.792969 45.707031 181.640625 Z M 61.773438 253.320312 C 59.972656 256.835938 64.164062 264.753906 68.632812 264.980469 C 73.234375 265.214844 118.238281 236.621094 114.734375 230.550781 C 110.902344 223.917969 63.324219 250.289062 61.773438 253.320312 Z M 111.527344 307.363281 C 111.726562 311.308594 119.316406 316.070312 123.296875 314.03125 C 127.398438 311.933594 152.078125 264.667969 146.007812 261.167969 C 139.371094 257.335938 111.359375 303.964844 111.527344 307.363281 Z M 181.640625 329.289062 C 183.785156 332.605469 192.734375 332.9375 195.167969 329.179688 C 197.667969 325.3125 195.410156 272.039062 188.402344 272.042969 C 180.738281 272.042969 179.792969 326.429688 181.640625 329.289062 Z M 253.320312 313.222656 C 256.835938 315.023438 264.753906 310.832031 264.980469 306.363281 C 265.214844 301.761719 236.621094 256.757812 230.550781 260.261719 C 223.917969 264.09375 250.292969 311.671875 253.320312 313.222656 Z M 307.363281 263.464844 C 311.308594 263.269531 316.070312 255.679688 314.03125 251.695312 C 311.933594 247.597656 264.667969 222.917969 261.167969 228.988281 C 257.335938 235.625 303.964844 263.636719 307.363281 263.464844 Z M 329.289062 193.355469 C 332.605469 191.210938 332.9375 182.261719 329.179688 179.828125 C 325.3125 177.328125 272.039062 179.585938 272.042969 186.59375 C 272.042969 194.257812 326.429688 195.203125 329.289062 193.355469 Z M 313.222656 121.675781 C 315.023438 118.160156 310.832031 110.242188 306.363281 110.015625 C 301.761719 109.78125 256.757812 138.375 260.261719 144.445312 C 264.09375 151.078125 311.671875 124.703125 313.222656 121.675781 Z M 263.464844 67.632812 C 263.269531 63.6875 255.679688 58.925781 251.695312 60.964844 C 247.597656 63.0625 222.917969 110.324219 228.988281 113.828125 C 235.625 117.660156 263.636719 71.03125 263.464844 67.632812 Z M 263.464844 67.632812 " fill-opacity="1" fill-rule="nonzero"/></svg>