<svg xmlns="http://www.w3.org/2000/svg" xmlns:xlink="http://www.w3.org/1999/xlink" width="500" zoomAndPan="magnify" viewBox="0 0 375 374.999991" height="500" preserveAspectRatio="xMidYMid meet" version="1.0"><defs><filter x="0%" y="0%" width="100%" height="100%" id="7e21c7f12b"><feColorMatrix values="0 0 0 0 1 0 0 0 0 1 0 0 0 0 1 0 0 0 1 0" color-interpolation-filters="sRGB"/></filter><mask id="b4b2085573"><g filter="url(#7e21c7f12b)"><rect x="-37.5" width="450" fill="#000000" y="-37.499999" height="449.999989" fill-opacity="0.31"/></g></mask><clipPath id="562fd21a2a"><path d="M 0.5 2 L 300.5 2 L 300.5 241 L 0.5 241 Z M 0.5 2 " clip-rule="nonzero"/></clipPath><clipPath id="59f096236b"><rect x="0" width="301" y="0" height="243"/></clipPath><clipPath id="8ac7898c00"><path d="M 112.5 112.5 L 262.5 112.5 L 262.5 262.5 L 112.5 262.5 Z M 112.5 112.5 " clip-rule="nonzero"/></clipPath></defs><g mask="url(#b4b2085573)"><g transform="matrix(1, 0, 0, 1, 37, 66)"><g clip-path="url(#59f096236b)"><g clip-path="url(#562fd21a2a)"><path fill="#b9d5f1" d="M 7.144531 48.585938 C 2.160156 61.5625 1.105469 75.695312 0.867188 89.597656 C 0.5 110.933594 2.109375 132.941406 11.5 152.097656 C 19.480469 168.371094 32.589844 181.554688 46.480469 193.195312 C 61.089844 205.4375 76.917969 216.386719 94.292969 224.210938 C 133.496094 241.871094 178.28125 242.664062 220.960938 237.515625 C 241.878906 234.992188 263.984375 230.449219 279.023438 215.691406 C 298.285156 196.792969 300.5 166.925781 300.390625 139.933594 C 300.28125 111.804688 298.269531 81.722656 281.289062 59.304688 C 260.695312 32.121094 224.105469 23.695312 190.484375 18.050781 C 153.5 11.84375 115.234375 4.390625 77.773438 2.171875 C 48.230469 0.425781 17.644531 21.234375 7.144531 48.585938 Z M 7.144531 48.585938 " fill-opacity="1" fill-rule="nonzero"/></g></g></g></g><g clip-path="url(#8ac7898c00)"><path fill="#2f3334" d="M 146.242188 112.5 L 228.667969 112.5 C 237.984375 112.5 246.417969 116.277344 252.570312 122.429688 C 258.632812 128.492188 262.5 137.015625 262.5 146.242188 L 262.5 228.667969 C 262.5 237.984375 258.632812 246.417969 252.570312 252.570312 C 246.417969 258.632812 237.984375 262.5 228.667969 262.5 L 146.242188 262.5 C 137.015625 262.5 128.492188 258.632812 122.429688 252.570312 C 116.277344 246.417969 112.5 237.984375 112.5 228.667969 L 112.5 146.242188 C 112.5 137.015625 116.277344 128.492188 122.429688 122.429688 C 128.492188 116.277344 137.015625 112.5 146.242188 112.5 Z M 228.667969 125.855469 L 146.242188 125.855469 C 140.621094 125.855469 135.523438 128.140625 131.832031 131.832031 C 128.140625 135.523438 125.855469 140.621094 125.855469 146.242188 L 125.855469 228.667969 C 125.855469 234.292969 128.140625 239.390625 131.832031 243.078125 C 135.523438 246.859375 140.621094 249.144531 146.242188 249.144531 L 228.667969 249.144531 C 234.292969 249.144531 239.390625 246.859375 243.078125 243.078125 C 246.859375 239.390625 249.144531 234.292969 249.144531 228.667969 L 249.144531 146.242188 C 249.144531 140.621094 246.859375 135.523438 243.078125 131.832031 C 239.390625 128.140625 234.292969 125.855469 228.667969 125.855469 Z M 228.667969 125.855469 " fill-opacity="1" fill-rule="nonzero"/></g><path fill="#2f3334" d="M 229.546875 138.6875 C 231.394531 138.6875 233.148438 139.390625 234.292969 140.621094 C 235.523438 141.851562 236.3125 143.519531 236.3125 145.363281 C 236.3125 147.210938 235.523438 148.96875 234.292969 150.109375 C 233.148438 151.339844 231.394531 152.132812 229.546875 152.132812 C 227.703125 152.132812 226.03125 151.339844 224.800781 150.109375 C 223.570312 148.96875 222.867188 147.210938 222.867188 145.363281 C 222.867188 143.519531 223.570312 141.851562 224.800781 140.621094 C 226.03125 139.390625 227.703125 138.6875 229.546875 138.6875 Z M 229.546875 138.6875 " fill-opacity="1" fill-rule="nonzero"/><path fill="#2f3334" d="M 187.457031 151.078125 C 197.5625 151.078125 206.613281 155.207031 213.203125 161.710938 C 219.792969 168.300781 223.921875 177.4375 223.921875 187.457031 C 223.921875 197.5625 219.792969 206.613281 213.203125 213.203125 C 206.613281 219.792969 197.5625 223.921875 187.457031 223.921875 C 177.4375 223.921875 168.300781 219.792969 161.710938 213.203125 C 155.207031 206.613281 151.078125 197.5625 151.078125 187.457031 C 151.078125 177.4375 155.207031 168.300781 161.710938 161.710938 C 168.300781 155.207031 177.4375 151.078125 187.457031 151.078125 Z M 203.710938 171.289062 C 199.582031 167.15625 193.78125 164.519531 187.457031 164.519531 C 181.128906 164.519531 175.417969 167.15625 171.289062 171.289062 C 167.15625 175.417969 164.519531 181.128906 164.519531 187.457031 C 164.519531 193.78125 167.15625 199.582031 171.289062 203.710938 C 175.417969 207.84375 181.128906 210.390625 187.457031 210.390625 C 193.78125 210.390625 199.582031 207.84375 203.710938 203.710938 C 207.84375 199.582031 210.390625 193.78125 210.390625 187.457031 C 210.390625 181.128906 207.84375 175.417969 203.710938 171.289062 Z M 203.710938 171.289062 " fill-opacity="1" fill-rule="nonzero"/></svg>